<?xml version="1.0" ?><svg height="32" id="icon" viewBox="0 0 32 32" width="32" xmlns="http://www.w3.org/2000/svg"><defs><style>
      .cls-1 {
        fill: none;
      }
    </style></defs><path d="M19,13V9H9V19h4v4H23V13Zm-8-2h6v6H11ZM21,21H15V19h4V15h2Z"/><path d="M30,8V2H24V4H8V2H2V8H4V24H2v6H8V28H24v2h6V24H28V8ZM26,4h2V6H26ZM4,4H6V6H4ZM6,28H4V26H6Zm22,0H26V26h2Zm-2-4H24v2H8V24H6V8H8V6H24V8h2Z"/><rect class="cls-1" data-name="&lt;Transparent Rectangle&gt;" height="32" id="_Transparent_Rectangle_" width="32"/></svg>